<svg xmlns="http://www.w3.org/2000/svg" width="16" height="16" viewBox="0 0 16 16" fill="context-fill" fill-opacity="context-fill-opacity"><path fill-rule="evenodd" d="M14 3.25H2a.75.75 0 0 0-.75.75v8c0 .414.336.75.75.75h12a.75.75 0 0 0 .75-.75V4a.75.75 0 0 0-.75-.75ZM2 2a2 2 0 0 0-2 2v8a2 2 0 0 0 2 2h12a2 2 0 0 0 2-2V4a2 2 0 0 0-2-2H2Z" clip-rule="evenodd"/><path stroke="#D9D9D9" stroke-width="1.25" d="m7.418 10.277.308.469-.308-.469-1.343.882.398-1.653a1.107 1.107 0 0 0-.344-1.092l-1.283-1.12 1.64-.116c.426-.03.779-.31.925-.693L8 4.953l.589 1.532c.146.382.5.663.925.693l1.64.116-1.283 1.12a1.107 1.107 0 0 0-.344 1.092l.398 1.653-1.343-.882-.343.523.343-.523a1.057 1.057 0 0 0-1.164 0Zm2.604 1.284Z"/></svg>