<svg width="20" height="20" viewBox="0 0 20 20" fill="context-fill" fill-opacity="context-fill-opacity" xmlns="http://www.w3.org/2000/svg">
  <path d="M3.929 6.357c0-.67.543-1.214 1.214-1.214h9.714c.671 0 1.214.544 1.214 1.214v2.429c0 .67-.543 1.214-1.214 1.214H5.143a1.214 1.214 0 01-1.214-1.214V6.357zm10.928 0H5.143v2.429h9.714V6.357zM12.429 11.214c-.671 0-1.215.544-1.215 1.215v1.214c0 .671.544 1.214 1.215 1.214h2.428c.671 0 1.214-.543 1.214-1.214v-1.214c0-.671-.543-1.215-1.214-1.215h-2.428zm0 1.215h2.428v1.214h-2.428v-1.214zM3.929 11.821c0-.335.271-.607.607-.607h4.857a.607.607 0 010 1.215H4.536a.607.607 0 01-.607-.608zM4.536 13.643a.607.607 0 100 1.214h4.857a.607.607 0 000-1.214H4.536z"/>
  <path d="M1.5 5.143A3.643 3.643 0 015.143 1.5h9.714A3.643 3.643 0 0118.5 5.143v9.714a3.643 3.643 0 01-3.643 3.643H5.143A3.643 3.643 0 011.5 14.857V5.143zm3.643-2.429a2.43 2.43 0 00-2.429 2.429v9.714a2.43 2.43 0 002.429 2.429h9.714a2.43 2.43 0 002.429-2.429V5.143a2.43 2.43 0 00-2.429-2.429H5.143z"/>
</svg>