<svg xmlns="http://www.w3.org/2000/svg" viewBox="0 0 16 16" width="16" height="16" fill="context-fill" fill-opacity="context-fill-opacity">
  <path d="M11 11V9a1 1 0 0 1 1-1h1a1 1 0 0 1 1 1V6.413a2 2 0 0 0-2-2H4a2 2 0 0 0-2 2V11H1c-1.333 0-1.333 2 0 2h7v-1a1 1 0 0 1 1-1zm4.5 1H13V9.5c0-.667-1-.667-1 0V12H9.5c-.667 0-.667 1 0 1H12v2.5c0 .667 1 .667 1 0V13h2.5c.667 0 .667-1 0-1z"/>
  <path d="M12.562 2.455a3.5 3.5 0 0 1 3.5 3.5v2.5c0 .82-.393 1.545-1 2v-4.5a2.5 2.5 0 0 0-2.5-2.5h-9.5c.456-.606 1.182-1 2-1z"/>
</svg>
