<svg xmlns="http://www.w3.org/2000/svg" width="16" height="16" fill="none"><path fill="#D9D9D9" fill-rule="evenodd" d="M3.63 2.255c-.76 0-1.375.616-1.375 1.375v8.74c0 .76.616 1.375 1.375 1.375h8.74c.76 0 1.375-.616 1.375-1.375V7.63a.625.625 0 1 1 1.25 0v4.74a2.625 2.625 0 0 1-2.625 2.625H3.63a2.625 2.625 0 0 1-2.625-2.625V3.63A2.625 2.625 0 0 1 3.63 1.005h4.74a.625.625 0 1 1 0 1.25H3.63Z" clip-rule="evenodd"/><path fill="#D9D9D9" fill-rule="evenodd" d="M11.625.25c.345 0 .625.28.625.625V3.75h2.875a.625.625 0 1 1 0 1.25H12.25v2.875a.625.625 0 1 1-1.25 0V5H8.125a.625.625 0 1 1 0-1.25H11V.875c0-.345.28-.625.625-.625Z" clip-rule="evenodd"/></svg>