<svg xmlns="http://www.w3.org/2000/svg" width="16" height="16" viewBox="0 0 16 16" fill="context-fill" fill-opacity="context-fill-opacity"><path  fill-rule="evenodd" d="M3.63 2.255c-.76 0-1.375.616-1.375 1.375v8.74c0 .76.616 1.375 1.375 1.375h8.74c.76 0 1.375-.616 1.375-1.375V9.63a.625.625 0 1 1 1.25 0v2.74a2.625 2.625 0 0 1-2.625 2.625H3.63a2.625 2.625 0 0 1-2.625-2.625V3.63A2.625 2.625 0 0 1 3.63 1.005h2.74a.625.625 0 1 1 0 1.25H3.63Z" clip-rule="evenodd"/><path  fill-rule="evenodd" d="M13 2.25h-3a.75.75 0 0 0-.75.75v3c0 .414.336.75.75.75h3a.75.75 0 0 0 .75-.75V3a.75.75 0 0 0-.75-.75ZM10 1a2 2 0 0 0-2 2v3a2 2 0 0 0 2 2h3a2 2 0 0 0 2-2V3a2 2 0 0 0-2-2h-3Z" clip-rule="evenodd"/></svg>