<svg xmlns="http://www.w3.org/2000/svg" width="16" height="16" viewBox="0 0 16 16" fill="context-fill" fill-opacity="context-fill-opacity"><g  fill-rule="evenodd" clip-path="url(#a)" clip-rule="evenodd"><path d="M3.63 2.255c-.76 0-1.375.616-1.375 1.375v8.74c0 .76.616 1.375 1.375 1.375h8.74c.76 0 1.375-.616 1.375-1.375V9.63a.625.625 0 1 1 1.25 0v2.74a2.625 2.625 0 0 1-2.625 2.625H3.63a2.625 2.625 0 0 1-2.625-2.625V3.63A2.625 2.625 0 0 1 3.63 1.005h2.74a.625.625 0 1 1 0 1.25H3.63Z"/><path d="M14.542 1.458a.625.625 0 0 1 0 .884l-2.033 2.033 2.033 2.033a.625.625 0 1 1-.884.884l-2.033-2.033-2.033 2.033a.625.625 0 0 1-.884-.884l2.033-2.033-2.033-2.033a.625.625 0 0 1 .884-.884l2.033 2.033 2.033-2.033a.625.625 0 0 1 .884 0Z"/></g><defs><clipPath id="a"><path fill="#fff" d="M0 0h16v16H0z"/></clipPath></defs></svg>