<svg xmlns="http://www.w3.org/2000/svg" width="32" height="32" fill="context-fill" viewBox="0 0 33 32" fill-opacity="context-fill-opacity"><path fill-rule="evenodd" d="M3.453 12.952a2.5 2.5 0 1 0 5-.001 2.5 2.5 0 0 0-5 0Zm-2.501 0a5 5 0 0 0 5.002 5 5 5 0 1 0-5.002-5ZM3.453 26.952a2.5 2.5 0 1 0 5-.001 2.5 2.5 0 0 0-5 0Zm-2.501 0a5 5 0 0 0 5.002 5 5 5 0 1 0-5.002-5Z" clip-rule="evenodd"/><path fill-rule="evenodd" d="M28.744 12.522a1.25 1.25 0 0 1-.353 1.732l-17.746 11.74a1.25 1.25 0 0 1-1.38-2.085L27.01 12.17a1.25 1.25 0 0 1 1.733.353Z" clip-rule="evenodd"/><path fill-rule="evenodd" d="M28.391 25.65a1.25 1.25 0 1 1-1.38 2.084l-7.986-5.283 2.265-1.5 7.101 4.698Zm-9.366-6.197-8.38-5.544a1.25 1.25 0 0 0-1.38 2.085l7.494 4.958 2.266-1.5ZM17 4.5h4V2h-4v2.5Zm10 0h-4V2h4v2.5Zm2 0A1.5 1.5 0 0 1 30.5 6H33a4 4 0 0 0-4-4v2.5Zm1.5 7.5V8H33v4h-2.5Zm0 2v4H33v-4h-2.5Zm0 10v-4H33v4h-2.5ZM15 4.5V2h-4v2.5h4Zm-9.71 0A4.001 4.001 0 0 1 9 2v2.5H5.29Z" clip-rule="evenodd"/></svg>