<svg xmlns="http://www.w3.org/2000/svg" width="32" height="32" viewBox="0 0 32 32" fill="context-fill" fill-opacity="context-fill-opacity"><path fill-rule="evenodd" d="M3.453 12.952a2.5 2.5 0 1 0 5-.001 2.5 2.5 0 0 0-5 0Zm-2.501 0a5 5 0 0 0 5.002 5 5 5 0 1 0-5.002-5ZM3.453 26.952a2.5 2.5 0 1 0 5-.001 2.5 2.5 0 0 0-5 0Zm-2.501 0a5 5 0 0 0 5.002 5 5 5 0 1 0-5.002-5Z" clip-rule="evenodd"/><path fill-rule="evenodd" d="M28.744 12.522a1.25 1.25 0 0 1-.353 1.732l-17.746 11.74a1.25 1.25 0 0 1-1.38-2.085L27.01 12.17a1.25 1.25 0 0 1 1.733.353Z" clip-rule="evenodd"/><path fill-rule="evenodd" d="M28.391 25.65a1.25 1.25 0 1 1-1.38 2.084l-7.986-5.283 2.265-1.5 7.101 4.698Zm-9.366-6.197-8.38-5.544a1.25 1.25 0 0 0-1.38 2.085l7.494 4.958 2.266-1.5Z" clip-rule="evenodd"/><path fill-rule="evenodd" d="M21 4.5h-4V2h4v2.5ZM23 4.5h4V2h-4v2.5ZM30.5 6A1.5 1.5 0 0 0 29 4.5V2a4 4 0 0 1 4 4h-2.5ZM30.5 8v4H33V8h-2.5ZM30.5 18v-4H33v4h-2.5ZM15 2v2.5h-4V2h4ZM9 2a4.001 4.001 0 0 0-3.71 2.5H9V2ZM30.5 23.71A4.002 4.002 0 0 0 33 20h-2.5v3.71Z"/></svg>