<svg width="18" height="36" viewBox="0 0 18 36" xmlns="http://www.w3.org/2000/svg"><path fill="context-fill" d="M 9,27 A 9,9 0 0 1 8.9082,28.28125 9,9 0 0 1 8.634763,29.535156 9,9 0 0 1 8.187497,30.738281 9,9 0 0 1 7.570309,31.865234 9,9 0 0 1 6.800778,32.894531 9,9 0 0 1 5.894528,33.800781 9,9 0 0 1 4.865231,34.570312 9,9 0 0 1 3.738281,35.1875 9,9 0 0 1 2.535156,35.634766 9,9 0 0 1 1.28125,35.908203 9,9 0 0 1 0,36 V 9 0 A 9,9 0 0 1 1.28125,0.09179687 9,9 0 0 1 2.535156,0.36523438 9,9 0 0 1 3.738281,0.8125 9,9 0 0 1 4.865234,1.4296875 9,9 0 0 1 5.894531,2.1992188 9,9 0 0 1 6.800781,3.1054688 9,9 0 0 1 7.570312,4.1347656 9,9 0 0 1 8.1875,5.2617188 9,9 0 0 1 8.634766,6.4648438 9,9 0 0 1 8.908203,7.71875 9,9 0 0 1 9,9 Z"/></svg>