<svg width="18" height="36" viewBox="0 0 18 36" xmlns="http://www.w3.org/2000/svg">
  <defs>
    <path id="tabCorner" stroke="context-stroke" stroke-opacity="context-stroke-opacity" stroke-width="1.5" stroke-dasharray="47 100" fill="context-fill" d="M 18 0 A 9 9 0 0 0 16.71875 0.091796875 A 9 9 0 0 0 15.464844 0.36523438 A 9 9 0 0 0 14.261719 0.8125 A 9 9 0 0 0 13.134766 1.4296875 A 9 9 0 0 0 12.105469 2.1992188 A 9 9 0 0 0 11.199219 3.1054688 A 9 9 0 0 0 10.429688 4.1347656 A 9 9 0 0 0 9.8125 5.2617188 A 9 9 0 0 0 9.3652344 6.4648438 A 9 9 0 0 0 9.0917969 7.71875 A 9 9 0 0 0 9 9 L 9 27 A 9 9 0 0 1 8.9082031 28.28125 A 9 9 0 0 1 8.6347656 29.535156 A 9 9 0 0 1 8.1875 30.738281 A 9 9 0 0 1 7.5703125 31.865234 A 9 9 0 0 1 6.8007812 32.894531 A 9 9 0 0 1 5.8945312 33.800781 A 9 9 0 0 1 4.8652344 34.570312 A 9 9 0 0 1 3.7382812 35.1875 A 9 9 0 0 1 2.5351562 35.634766 A 9 9 0 0 1 1.28125 35.908203 A 9 9 0 0 1 0 36 L 9 36 L 18 36 L 18 9 L 18 0 z"/>
  </defs>
  <clipPath id="svgClipPath" clipPathUnits="objectBoundingBox">
    <use href="#tabCorner" x="-2" transform="scale(0.065, 0.0277)" />
  </clipPath>
  <use href="#tabCorner" />
</svg>
