<svg width="36" height="36" viewBox="0 0 36 36" xmlns="http://www.w3.org/2000/svg"><path fill="context-fill" d="m 18,18 c -0.1875,1.125 -0.375016,2.250016 -0.574219,3.351562 -0.0996,0.550774 -0.201672,1.096692 -0.308593,1.632813 -0.106922,0.536121 -0.218766,1.062516 -0.335938,1.578125 -0.117172,0.515609 -0.240742,1.020527 -0.371094,1.509766 -0.130351,0.489238 -0.267601,0.962914 -0.414062,1.419922 -0.146461,0.457007 -0.301297,0.897488 -0.466797,1.316406 -0.08275,0.209459 -0.1678,0.41249 -0.255859,0.611328 C 15.185378,29.61876 15.093734,29.812516 15,30 c -0.09373,0.187484 -0.189557,0.368972 -0.289062,0.544922 -0.09951,0.17595 -0.201549,0.346937 -0.306641,0.511719 -0.105093,0.164781 -0.213722,0.324536 -0.324219,0.478515 -0.110497,0.153979 -0.224126,0.30177 -0.339844,0.445313 -0.115717,0.143542 -0.23276,0.282543 -0.353515,0.416015 -0.120755,0.133473 -0.245484,0.260997 -0.371094,0.384766 -0.12561,0.123769 -0.252532,0.24299 -0.382813,0.357422 -0.13028,0.114431 -0.263668,0.224618 -0.398437,0.330078 -0.134769,0.10546 -0.271083,0.20588 -0.410156,0.302734 -0.139073,0.09685 -0.280634,0.190682 -0.423828,0.279297 -0.143195,0.08862 -0.288415,0.173164 -0.435547,0.253907 -0.147133,0.08074 -0.296378,0.157232 -0.447266,0.230468 -0.301775,0.146472 -0.610086,0.277842 -0.925781,0.396485 C 9.276102,35.050283 8.953148,35.156258 8.625,35.25 c -0.328148,0.09374 -0.660864,0.176276 -1,0.248047 -0.339136,0.07177 -0.684545,0.132817 -1.033203,0.185547 -0.348658,0.05273 -0.701881,0.09619 -1.058594,0.132812 -0.356713,0.03662 -0.716775,0.06641 -1.080078,0.08984 -0.363303,0.02344 -0.72923,0.04151 -1.097656,0.05469 -0.368426,0.01318 -0.739245,0.02148 -1.111328,0.02734 C 1.499974,35.999999 0.75,36 0,36 V 0 c 6,0 11.9995,-5e-4 15,6 1.50025,3.00025 2.25,7.5 3,12 z"/></svg>