<svg width="16" height="32" viewBox="0 0 16 32" xmlns="http://www.w3.org/2000/svg"><path fill="context-fill" d="m 4,0 a 4,4 0 0 1 0.568359,0.04101562 4,4 0 0 1 0.558594,0.12109376 4,4 0 0 1 0.535156,0.19921874 4,4 0 0 1 0.5,0.2734375 4,4 0 0 1 0.457032,0.34179688 4,4 0 0 1 0.404297,0.4042969 4,4 0 0 1 0.341796,0.4570312 4,4 0 0 1 0.273438,0.5 A 4,4 0 0 1 7.837891,2.8730469 4,4 0 0 1 7.958984,3.4316406 4,4 0 0 1 8,4 v 24 a 4,4 0 0 0 0.04102,0.568359 4,4 0 0 0 0.121093,0.558594 4,4 0 0 0 0.199219,0.535156 4,4 0 0 0 0.273438,0.5 4,4 0 0 0 0.341797,0.457032 4,4 0 0 0 0.404296,0.404297 4,4 0 0 0 0.457032,0.341796 4,4 0 0 0 0.5,0.273438 4,4 0 0 0 0.535156,0.199219 4,4 0 0 0 0.558594,0.121093 A 4,4 0 0 0 12,32 H 8 4 0 V 0 Z"/></svg>
