<svg width="30" height="30" viewBox="0 0 30 30" xmlns="http://www.w3.org/2000/svg"><path fill="context-fill" d="m 15,7.9667969 c -0.01449,0.035244 -0.03068,0.070158 -0.04492,0.1054687 -0.09052,0.2245057 -0.176971,0.4510693 -0.257814,0.6777344 -0.08085,0.2266651 -0.156494,0.4537768 -0.228516,0.6816406 -0.07202,0.2278638 -0.139075,0.4554921 -0.203125,0.6835934 -0.128103,0.456204 -0.242431,0.911891 -0.34375,1.363283 -0.10132,0.45139 -0.19014,0.898998 -0.271484,1.337889 -0.08134,0.438892 -0.154483,0.870358 -0.222657,1.289064 -0.136347,0.837412 -0.252453,1.625382 -0.376953,2.335936 -0.09317,0.531284 -0.195661,1.046768 -0.304687,1.546876 -0.109026,0.500108 -0.225339,0.986131 -0.351563,1.455078 -0.126224,0.468948 -0.261487,0.921573 -0.40625,1.359375 -0.07238,0.218902 -0.147342,0.433414 -0.224609,0.644532 -0.07727,0.211117 -0.15596,0.41971 -0.238281,0.623046 -0.08232,0.203337 -0.168317,0.4021 -0.25586,0.597657 -0.08754,0.195556 -0.176599,0.38644 -0.269531,0.574219 -0.09293,0.187778 -0.188621,0.372732 -0.287109,0.552734 -0.09849,0.180002 -0.200476,0.355115 -0.304688,0.527344 -0.104212,0.172228 -0.212161,0.341403 -0.322265,0.505859 -0.110105,0.164456 -0.221727,0.323783 -0.337891,0.480469 -0.116164,0.156685 -0.236984,0.310067 -0.359375,0.458984 -0.122391,0.148917 -0.246215,0.294397 -0.375,0.435547 C 8.884886,26.344276 8.752535,26.48185 8.617188,26.615235 8.48184,26.748621 8.34325,26.878285 8.201172,27.003907 8.059094,27.12953 7.912647,27.25128 7.763672,27.369142 7.614696,27.487003 7.462681,27.600836 7.306641,27.710939 7.1506,27.821041 6.991399,27.926953 6.828125,28.029298 6.664851,28.131643 6.496846,28.22963 6.326172,28.32422 6.155498,28.41881 5.980976,28.510821 5.802734,28.597657 5.624492,28.684497 5.44379,28.76662 5.257812,28.845704 5.071835,28.924784 4.881381,28.998979 4.6875,29.070313 c -0.193881,0.07133 -0.391798,0.139539 -0.59375,0.203126 -0.201952,0.06359 -0.40895,0.123846 -0.619141,0.179687 -0.21019,0.05584 -0.423981,0.108154 -0.642578,0.15625 -0.218597,0.0481 -0.440798,0.09246 -0.667969,0.132813 -0.22717,0.04035 -0.4594,0.07676 -0.695312,0.109374 -0.235912,0.03261 -0.475882,0.06106 -0.720703,0.08594 C 0.503226,29.962373 0.253898,29.982863 0,30.000003 V 0 H 1.5 C 9.714247,0.017514 13.264276,3.7445482 15,7.9667969 Z"/></svg>