<svg width="18" height="36" viewBox="0 0 18 36" xmlns="http://www.w3.org/2000/svg">
  <path stroke="context-stroke" stroke-width="1.5" stroke-dasharray="47 100" fill="context-fill" d="M 3.4620099e-4,0 A -9,9 0 0 1 1.2815962,0.09179687 -9,9 0 0 1 2.5355022,0.36523438 -9,9 0 0 1 3.7386272,0.8125 a -9,9 0 0 1 1.126953,0.6171875 -9,9 0 0 1 1.029297,0.7695313 -9,9 0 0 1 0.90625,0.90625 -9,9 0 0 1 0.769531,1.0292968 -9,9 0 0 1 0.617188,1.1269532 -9,9 0 0 1 0.4472656,1.203125 A -9,9 0 0 1 8.9085493,7.71875 -9,9 0 0 1 9.0003462,9 v 18 a -9,9 0 0 0 0.091797,1.28125 -9,9 0 0 0 0.2734375,1.253906 -9,9 0 0 0 0.4472656,1.203125 -9,9 0 0 0 0.6171878,1.126953 -9,9 0 0 0 0.769531,1.029297 -9,9 0 0 0 0.90625,0.90625 -9,9 0 0 0 1.029297,0.769531 -9,9 0 0 0 1.126953,0.617188 -9,9 0 0 0 1.203125,0.447266 -9,9 0 0 0 1.253906,0.273437 A -9,9 0 0 0 18.000346,36 H 9.0003462 3.4620099e-4 V 9 Z"/>
</svg>
