<svg width="30" height="30" viewBox="0 0 30 30" xmlns="http://www.w3.org/2000/svg"><path fill="context-fill" d="M 15 7.9667969 C 15.014488 8.0020408 15.030685 8.0369546 15.044922 8.0722656 C 15.13544 8.2967713 15.22189 8.5233349 15.302734 8.75 C 15.383579 8.9766651 15.459227 9.2037768 15.53125 9.4316406 C 15.603273 9.6595044 15.670324 9.8871327 15.734375 10.115234 C 15.862477 10.571438 15.976805 11.027125 16.078125 11.478516 C 16.179445 11.929906 16.268265 12.377515 16.349609 12.816406 C 16.430954 13.255298 16.504092 13.686763 16.572266 14.105469 C 16.708613 14.942881 16.824719 15.730852 16.949219 16.441406 C 17.042388 16.972689 17.14488 17.488173 17.253906 17.988281 C 17.362932 18.488389 17.479245 18.974412 17.605469 19.443359 C 17.731693 19.912307 17.866956 20.364932 18.011719 20.802734 C 18.0841 21.021636 18.159061 21.236148 18.236328 21.447266 C 18.313596 21.658383 18.392288 21.866976 18.474609 22.070312 C 18.556931 22.273649 18.642926 22.472412 18.730469 22.667969 C 18.818011 22.863525 18.907068 23.054409 19 23.242188 C 19.092932 23.429966 19.188621 23.61492 19.287109 23.794922 C 19.385598 23.974924 19.487585 24.150037 19.591797 24.322266 C 19.696009 24.494494 19.803958 24.663669 19.914062 24.828125 C 20.024167 24.992581 20.135789 25.151908 20.251953 25.308594 C 20.368117 25.465279 20.488937 25.618661 20.611328 25.767578 C 20.733719 25.916495 20.857543 26.061975 20.986328 26.203125 C 21.115114 26.344275 21.247465 26.481849 21.382812 26.615234 C 21.51816 26.74862 21.65675 26.878284 21.798828 27.003906 C 21.940906 27.129529 22.087353 27.251279 22.236328 27.369141 C 22.385304 27.487002 22.537319 27.600835 22.693359 27.710938 C 22.8494 27.82104 23.008601 27.926952 23.171875 28.029297 C 23.335149 28.131642 23.503154 28.229629 23.673828 28.324219 C 23.844502 28.418808 24.019024 28.51082 24.197266 28.597656 C 24.375508 28.684492 24.55621 28.766619 24.742188 28.845703 C 24.928165 28.924788 25.118619 28.998978 25.3125 29.070312 C 25.506381 29.141647 25.704298 29.209851 25.90625 29.273438 C 26.108202 29.337024 26.3152 29.397284 26.525391 29.453125 C 26.735581 29.508966 26.949372 29.561279 27.167969 29.609375 C 27.386566 29.657471 27.608767 29.701833 27.835938 29.742188 C 28.063108 29.782542 28.295338 29.818949 28.53125 29.851562 C 28.767162 29.884176 29.007132 29.912625 29.251953 29.9375 C 29.496774 29.962375 29.746102 29.982862 30 30 L 30 0 L 28.5 0 C 20.285753 0.017514387 16.735724 3.7445482 15 7.9667969 z"/></svg>