<svg width="18" height="36" viewBox="0 0 18 36" xmlns="http://www.w3.org/2000/svg"><path fill="context-fill" d="M 9 27 A 9 9 0 0 0 9.0917969 28.28125 A 9 9 0 0 0 9.3652344 29.535156 A 9 9 0 0 0 9.8125 30.738281 A 9 9 0 0 0 10.429688 31.865234 A 9 9 0 0 0 11.199219 32.894531 A 9 9 0 0 0 12.105469 33.800781 A 9 9 0 0 0 13.134766 34.570312 A 9 9 0 0 0 14.261719 35.1875 A 9 9 0 0 0 15.464844 35.634766 A 9 9 0 0 0 16.71875 35.908203 A 9 9 0 0 0 18 36 L 18 9 L 18 0 A 9 9 0 0 0 16.71875 0.091796875 A 9 9 0 0 0 15.464844 0.36523438 A 9 9 0 0 0 14.261719 0.8125 A 9 9 0 0 0 13.134766 1.4296875 A 9 9 0 0 0 12.105469 2.1992188 A 9 9 0 0 0 11.199219 3.1054688 A 9 9 0 0 0 10.429688 4.1347656 A 9 9 0 0 0 9.8125 5.2617188 A 9 9 0 0 0 9.3652344 6.4648438 A 9 9 0 0 0 9.0917969 7.71875 A 9 9 0 0 0 9 9 L 9 27 z"/></svg>