<svg width="16" height="32" viewBox="0 0 16 32" xmlns="http://www.w3.org/2000/svg"><path fill="context-fill" d="M 12 0 A 4 4 0 0 0 11.431641 0.041015625 A 4 4 0 0 0 10.873047 0.16210938 A 4 4 0 0 0 10.337891 0.36132812 A 4 4 0 0 0 9.8378906 0.63476562 A 4 4 0 0 0 9.3808594 0.9765625 A 4 4 0 0 0 8.9765625 1.3808594 A 4 4 0 0 0 8.6347656 1.8378906 A 4 4 0 0 0 8.3613281 2.3378906 A 4 4 0 0 0 8.1621094 2.8730469 A 4 4 0 0 0 8.0410156 3.4316406 A 4 4 0 0 0 8 4 L 8 28 A 4 4 0 0 1 7.9589844 28.568359 A 4 4 0 0 1 7.8378906 29.126953 A 4 4 0 0 1 7.6386719 29.662109 A 4 4 0 0 1 7.3652344 30.162109 A 4 4 0 0 1 7.0234375 30.619141 A 4 4 0 0 1 6.6191406 31.023438 A 4 4 0 0 1 6.1621094 31.365234 A 4 4 0 0 1 5.6621094 31.638672 A 4 4 0 0 1 5.1269531 31.837891 A 4 4 0 0 1 4.5683594 31.958984 A 4 4 0 0 1 4 32 L 8 32 L 12 32 L 16 32 L 16 0 L 12 0 z"/></svg>
